<svg viewBox="0 0 500 500" xmlns="http://www.w3.org/2000/svg" xmlns:bx="https://boxy-svg.com" preserveAspectRatio="xMinYMin"><path d="M142.143 167.216c-18.971 24.713-28.139 53.865-28.118 82.784H38.197c-.032-45.047 14.248-90.457 43.798-128.953a213.87 213.87 0 0 1 18.231-20.821l53.622 53.622a137.34 137.34 0 0 0-11.705 13.368zm305.902 286.596c-16.142 12.779-40.057 9.46-53.416-7.414-4.855-6.133-7.647-13.215-8.459-20.358h-.268v-13.566c-38.698 32.435-87.086 49.279-135.902 49.317v-75.826c35.204-.028 70.061-13.672 96.143-39.822L451.1 451.1a35.968 35.968 0 0 1-3.055 2.712zm-280.84-95.964c24.716 18.972 53.872 28.14 82.795 28.117v75.826c-45.051.035-90.467-14.245-128.966-43.797a213.724 213.724 0 0 1-20.808-18.22l53.621-53.621a137.375 137.375 0 0 0 13.358 11.695zm218.697-108.505h.05c-.193-34.979-13.825-69.564-39.81-95.485l53.621-53.621c40.567 40.468 61.808 94.494 62.018 149.106h.022V250h-75.901zm-53.127-107.189c-24.711-18.968-53.859-28.135-82.775-28.117V38.208c45.044-.03 90.45 14.25 128.942 43.797a213.626 213.626 0 0 1 20.821 18.232l-53.621 53.621a137.2 137.2 0 0 0-13.367-11.704zm-178.927 11.694l-53.622-53.622C140.859 59.493 195.161 38.245 250 38.208v75.829c-35.206.023-70.066 13.663-96.152 39.811zm203.989 178.938c18.124-23.612 27.301-51.275 28.065-78.916V250h75.901v176.04h-.022c-.276 9.3-3.899 18.311-10.681 25.06L346.143 346.143a137.354 137.354 0 0 0 11.694-13.357zM38.197 250h75.828c.025 35.207 13.668 70.068 39.822 96.153l-53.621 53.621C59.488 359.142 38.237 304.84 38.197 250z" fill="#aaa"/><path d="M959.719-348.102h.05c-.224-40.556-18.514-80.583-53.177-107.189-59.564-45.721-144.913-34.5-190.632 25.062-45.723 59.562-34.502 144.911 25.062 190.632 59.562 45.721 144.913 34.5 190.632-25.062 18.124-23.612 27.301-51.275 28.065-78.916zm75.901 0v176.697h-.022c-.315 10.61-4.986 20.845-13.736 27.772-16.142 12.779-40.057 9.46-53.416-7.414-4.855-6.133-7.647-13.215-8.459-20.358h-.268v-13.566c-74.412 62.368-184.652 67.093-264.868 5.52-92.78-71.22-110.258-204.167-39.039-296.947 71.218-92.782 204.169-110.26 296.947-39.042 54.098 41.526 82.596 104.038 82.839 167.338z" fill="#97cc64"/><path stroke="#000" d="M357.702 356.233h0M301.71 348.06h0"/><path d="M-771.865 1283.908h.029c-.128-23.069-10.532-45.837-30.248-60.971a77.52 77.52 0 0 0-16.176-9.562l17.469-39.446a120.762 120.762 0 0 1 24.968 14.794c30.772 23.621 46.981 59.179 47.119 95.185h.013v85.278l-58.387-38.809c9.813-13.21 14.789-28.558 15.213-43.894z" fill="#97cc64"/><path d="M-928.57 1244.503c-26.008 33.88-19.625 82.428 14.256 108.435 33.88 26.007 82.429 19.624 108.434-14.256.254-.33.504-.662.752-.996l58.386 38.809v15.232h-.013c-.178 6.035-2.835 11.857-7.812 15.797-9.182 7.269-22.785 5.381-30.384-4.217-2.762-3.489-4.35-7.517-4.812-11.58h-.153v-7.717c-42.326 35.476-105.034 38.164-150.661 3.14-52.775-40.511-62.717-116.134-22.206-168.909 34.463-44.898 94.34-58.795 143.941-37.002l-17.469 39.446c-31.814-13.899-70.169-4.96-92.259 23.818z" fill="#97cc64"/><path d="M-432.753 1029.023a171.372 171.372 0 1 1-73.327-251.559l-69.393 156.694z" bx:shape="pie 305 285 0 204.13 123.612 23.886 1@7db323cb" fill="#fd5a3e"/><path d="M-496.138 930.311h.029c-.128-23.069-10.532-45.837-30.248-60.971-33.881-26.007-82.429-19.624-108.435 14.256-26.008 33.88-19.625 82.428 14.256 108.435 33.88 26.007 82.429 19.624 108.434-14.256 10.31-13.431 15.529-29.166 15.964-44.889zm43.174 0v100.509h-.013c-.178 6.035-2.835 11.857-7.812 15.797-9.182 7.269-22.785 5.381-30.384-4.217-2.762-3.489-4.35-7.517-4.812-11.58h-.153v-7.717c-42.326 35.476-105.034 38.164-150.661 3.14-52.775-40.511-62.717-116.134-22.206-168.909 40.51-52.776 116.135-62.718 168.909-22.208 30.772 23.621 46.981 59.179 47.119 95.185z" fill="#97cc64"/><path d="M-505.564 1499.052a171.372 171.372 0 1 1 118.684 79.67l22.535-138.767a30.786 30.786 0 1 0-21.321-14.313z" bx:shape="pie 305 285 36.671 204.13 238.522 189.224 1@b974490a" fill="#fd5a3e"/><path d="M-282.129 1409.048h.029c-.128-23.069-10.532-45.837-30.248-60.971-33.881-26.007-82.429-19.624-108.435 14.256-26.008 33.88-19.625 82.428 14.256 108.435 33.88 26.007 82.429 19.624 108.434-14.256 10.31-13.431 15.529-29.166 15.964-44.889zm43.174 0v100.509h-.013c-.178 6.035-2.835 11.857-7.812 15.797-9.182 7.269-22.785 5.381-30.384-4.217-2.762-3.489-4.35-7.517-4.812-11.58h-.153v-7.717c-42.326 35.476-105.034 38.164-150.661 3.14-52.775-40.511-62.717-116.134-22.206-168.909 40.51-52.776 116.135-62.718 168.909-22.208 30.772 23.621 46.981 59.179 47.119 95.185zM-880.208 1706.368v100.509h-.013c-.178 6.035-2.835 11.857-7.812 15.797-9.182 7.269-22.785 5.381-30.384-4.217-2.762-3.489-4.35-7.517-4.812-11.58h-.153v-7.717c-42.326 35.476-105.034 38.164-150.661 3.14-15.963-12.253-28.007-27.719-35.921-44.793l38.378-17.773c25.285 54.596 100.191 61.347 134.831 12.151 34.639-49.195 3.033-117.441-56.892-122.842-30.034-2.707-58.946 12.106-74.294 38.063l-36.511-21.588a121.79 121.79 0 0 1 8.203-12.127c40.51-52.776 116.135-62.718 168.909-22.208 30.772 23.621 46.981 59.179 47.119 95.185z" fill="#97cc64"/><path d="M-933.609 930.311h.029c-.128-23.069-10.532-45.837-30.248-60.971-14.884-11.425-32.599-16.599-49.99-15.937l-1.63-43.101c27.094-1.035 54.693 7.025 77.881 24.824 30.772 23.621 46.981 59.179 47.119 95.185h.013v80.058l-56.004-36.981a76.916 76.916 0 0 0 12.83-40.502z" fill="#fd5a3e"/><path d="M-949.579 977.799a79.231 79.231 0 0 0 3.134-4.386l56.004 36.98v20.451h-.013c-.178 6.034-2.835 11.857-7.812 15.797-9.182 7.268-22.785 5.381-30.384-4.217-2.762-3.489-4.35-7.517-4.812-11.58h-.153v-7.717c-27.11 22.723-62.582 31.994-96.572 26.52l6.915-42.581c27.152 4.368 55.774-5.923 73.693-29.267z" fill="#ffd050"/><path d="M-1058.08 991.95c10.535 8.087 22.488 13.042 34.741 15.012l-6.915 42.58c-19.077-3.072-37.687-10.789-54.089-23.38-12.04-9.242-21.85-20.311-29.341-32.52l36.793-22.528c4.805 7.822 11.095 14.913 18.811 20.836z" fill="#aaa"/><path d="M-272.488 1118.797a15.775 15.224 71.028 1 0 8.436-8.157l2.01 5.325a10.083 9.731 71.028 1 1-5.392 5.214z" bx:shape="pie 305 285 130.479 204.13 316.811 271.772 1@dc57bfa5"/><path d="M-1072.214 883.661c-20.059 26.13-20.85 60.985-4.619 87.495l-.017.011-36.776 22.517c-25.278-41.293-24.044-95.584 7.199-136.285 22.709-29.585 56.453-45.71 91.02-47.032l1.63 43.089.002.012c-22.194.847-43.859 11.199-58.439 30.193z" fill="#97cc64"/><path d="M-308.262 1135.753h.006a16.874 16.874 0 0 0-6.61-13.326 16.84 16.84 0 0 0-10.926-3.482l-.357-9.42a26.226 26.226 0 0 1 17.023 5.425c6.724 5.163 10.266 12.934 10.297 20.803h.002v17.497l-12.239-8.082a16.815 16.815 0 0 0 2.804-8.852z" fill="#fd5a3e"/><path d="M-311.753 1146.132c.241-.314.47-.634.685-.959l12.24 8.082v4.47h-.002c-.04 1.319-.619 2.591-1.708 3.452-2.007 1.589-4.979 1.177-6.641-.921a4.988 4.988 0 0 1-1.051-2.531h-.034v-1.687c-5.925 4.966-13.677 6.993-21.106 5.797l1.512-9.307c5.935.955 12.19-1.294 16.105-6.396z" fill="#ffd050"/><path d="M-335.465 1149.225a16.83 16.83 0 0 0 7.592 3.281l-1.512 9.306a26.216 26.216 0 0 1-11.821-5.11 26.26 26.26 0 0 1-6.412-7.108l8.041-4.923a16.864 16.864 0 0 0 4.112 4.554z" fill="#aaa"/><path d="M-338.554 1125.558c-4.385 5.711-4.558 13.327-1.01 19.122l-.004.002-8.038 4.922c-5.524-9.025-5.255-20.891 1.574-29.786 4.963-6.466 12.338-9.99 19.893-10.279l.356 9.417v.002c-4.851.186-9.586 2.448-12.771 6.6z" fill="#97cc64"/><path d="M167.205 357.848c24.716 18.972 53.872 28.14 82.795 28.117v75.826c-45.051.035-90.467-14.245-128.966-43.797a213.724 213.724 0 0 1-20.808-18.22l53.621-53.621a137.375 137.375 0 0 0 13.358 11.695z" fill="#aaa"/><path d="M385.902 249.343h.05c-.193-34.979-13.825-69.564-39.81-95.485l53.621-53.621c40.567 40.468 61.808 94.494 62.018 149.106h.022V250h-75.901z" fill="#d35ebe"/><path d="M38.197-518.827l-250 250h250v-250z" fill="#5652a7"/><path d="M332.775 142.154c-24.711-18.968-53.859-28.135-82.775-28.117V38.208c45.044-.03 90.45 14.25 128.942 43.797a213.626 213.626 0 0 1 20.821 18.232l-53.621 53.621a137.2 137.2 0 0 0-13.367-11.704z" fill="#fd5a3e"/><path d="M357.837 332.786c18.124-23.612 27.301-51.275 28.065-78.916V250h75.901v176.04h-.022c-.276 9.3-3.899 18.311-10.681 25.06a35.968 35.968 0 0 1-3.055 2.712c-16.142 12.779-40.057 9.46-53.416-7.414-4.855-6.133-7.647-13.215-8.459-20.358h-.268v-13.566c-38.698 32.435-87.086 49.279-135.902 49.317v-75.826c35.204-.028 70.061-13.672 96.143-39.822a137.354 137.354 0 0 0 11.694-13.357z" fill="#ffd050"/><path d="M153.847 346.153l-53.621 53.621C59.488 359.142 38.237 304.84 38.197 250c-.032-45.047 14.248-90.457 43.798-128.953a213.87 213.87 0 0 1 18.231-20.821C140.859 59.493 195.161 38.245 250 38.208v75.829c-35.206.023-70.066 13.663-96.152 39.811a137.34 137.34 0 0 0-11.705 13.368c-18.971 24.713-28.139 53.865-28.118 82.784.025 35.207 13.668 70.068 39.822 96.153z" fill="#97cc64"/></svg>